<svg xmlns="http://www.w3.org/2000/svg" width="860" height="340" viewBox="0 0 860 340" role="img">
<style>text{font-family:Inter,ui-sans-serif,system-ui,-apple-system,BlinkMacSystemFont,"Segoe UI",sans-serif}</style>
<rect x="0" y="0" width="860" height="340" fill="#f8fafc"/>
<text x="30" y="38" font-size="22" font-weight="700" fill="#132238">Trade Diagnostics</text>
<text x="30" y="84" font-size="12" fill="#475569">trade_buy_source_counts_total.JointPortfolioQPJob</text>
<rect x="260" y="68" width="560.0" height="18" rx="5" fill="#0f766e"/>
<text x="830.0" y="82" font-size="12" fill="#0f172a">33.000</text>
<text x="30" y="114" font-size="12" fill="#475569">trade_buy_regime_counts_total.BULL_CALM</text>
<rect x="260" y="98" width="560.0" height="18" rx="5" fill="#0f766e"/>
<text x="830.0" y="112" font-size="12" fill="#0f172a">33.000</text>
<text x="30" y="144" font-size="12" fill="#475569">trade_sell_exit_reason_counts_total.trailing_stop</text>
<rect x="260" y="128" width="220.6" height="18" rx="5" fill="#0f766e"/>
<text x="490.6" y="142" font-size="12" fill="#0f172a">13.000</text>
<text x="30" y="174" font-size="12" fill="#475569">trade_sell_regime_counts_total.BULL_CALM</text>
<rect x="260" y="158" width="186.7" height="18" rx="5" fill="#0f766e"/>
<text x="456.7" y="172" font-size="12" fill="#0f172a">11.000</text>
<text x="30" y="204" font-size="12" fill="#475569">trade_sell_regime_counts_total.CHOPPY</text>
<rect x="260" y="188" width="169.7" height="18" rx="5" fill="#0f766e"/>
<text x="439.7" y="202" font-size="12" fill="#0f172a">10.000</text>
<text x="30" y="234" font-size="12" fill="#475569">trade_sell_exit_reason_counts_total.stop_loss</text>
<rect x="260" y="218" width="84.8" height="18" rx="5" fill="#0f766e"/>
<text x="354.8" y="232" font-size="12" fill="#0f172a">5.000</text>
<text x="30" y="264" font-size="12" fill="#475569">trade_sell_exit_reason_counts_total.qp_sell</text>
<rect x="260" y="248" width="84.8" height="18" rx="5" fill="#0f766e"/>
<text x="354.8" y="262" font-size="12" fill="#0f172a">5.000</text>
<text x="30" y="294" font-size="12" fill="#475569">trade_sell_regime_counts_total.BEAR</text>
<rect x="260" y="278" width="84.8" height="18" rx="5" fill="#0f766e"/>
<text x="354.8" y="292" font-size="12" fill="#0f172a">5.000</text>
</svg>
